# xmcd
#
# Track frame offsets:
# 150
# 16782
# 30602
# 43412
# 57662
# 75812
#
# Disc length: 1244 seconds
#
# Revision: 0
# Processed by: cddbd v1.4b42PL0 Copyright (c) Steve Scherf et al.
# Submitted via: Audion 2.5.0 (http://www.panic.com/audion/)
#
DISCID=4004da06
DTITLE=BEES - Punchbag EP
DYEAR=1900
DGENRE=
TTITLE0=Punchbag
TTITLE1=Town Version
TTITLE2=A Minha Menina
TTITLE3=Elain
TTITLE4=Whistle Chop
TTITLE5=Jackel Head
EXTD=
EXTT0=
EXTT1=
EXTT2=
EXTT3=
EXTT4=
EXTT5=
PLAYORDER=
